<?xml version="1.0" encoding="UTF-8"?>
<svg width="120px" height="120px" viewBox="0 0 120 120" version="1.1" xmlns="http://www.w3.org/2000/svg" xmlns:xlink="http://www.w3.org/1999/xlink">
    <title>interface</title>
    <g id="Symbols" stroke="none" stroke-width="1" fill="none" fill-rule="evenodd">
        <g id="interface">
            <circle id="Oval" fill="#1EC760" opacity="0.0799999982" cx="60" cy="60" r="60"></circle>
            <path d="M60.1171875,30 C43.6289062,30 30,43.3945312 30,59.8828125 C30,76.3710938 43.6289062,90 60.1171875,90 C76.6054688,90 90,76.3710938 90,59.8828125 C90,43.3945312 76.6054688,30 60.1171875,30 Z" id="Path" fill="#3A7714"></path>
            <path d="M90,59.8828125 C90,76.3710938 76.6054688,90 60.1171875,90 L60.1171875,30 C76.6054688,30 90,43.3945312 90,59.8828125 Z" id="Path" fill="#2B660E"></path>
            <path d="M77.5195312,52.1131641 L60.1171875,69.5507812 L58.8868359,70.7811328 C57.4804688,72.1522266 55.265625,72.1522266 53.8945312,70.7811328 L42.4804688,59.5662891 C41.109375,58.1951953 41.109375,55.9804688 42.4804688,54.609375 C43.78125,53.3085938 46.1368359,53.3085938 47.4376172,54.609375 L56.390625,63.2928516 L60.1171875,59.5662891 L72.5623828,47.15625 C73.8631641,45.8554688 76.21875,45.8554688 77.5195312,47.15625 C78.8555859,48.4921875 78.9256641,50.7420703 77.5195312,52.1131641 Z" id="background/-basic-100" fill="#FFFFFF"></path>
            <path d="M77.5195312,52.1131641 L60.1171875,69.5507812 L60.1171875,59.5662891 L72.5623828,47.15625 C73.8631641,45.8554688 76.21875,45.8554688 77.5195312,47.15625 C78.8555859,48.4921875 78.9256641,50.7420703 77.5195312,52.1131641 Z" id="Path" fill="#1EC760" opacity="0.159999996"></path>
        </g>
    </g>
</svg>
