<?xml version="1.0" encoding="UTF-8"?>
<svg width="160px" height="125px" viewBox="0 0 160 125" version="1.1" xmlns="http://www.w3.org/2000/svg" xmlns:xlink="http://www.w3.org/1999/xlink">
    <title>Group 2</title>
    <g id="Symbols" stroke="none" stroke-width="1" fill="none" fill-rule="evenodd">
        <g id="Group-2">
            <path d="M13.7338428,36 L76.2661572,36 C81.6204338,36 86,40.4106884 86,45.7993047 L86,89.5640807 C86,94.9526969 81.6204338,99.3633853 76.2661572,99.3633853 L41.0439687,99.3633853 L20.5435543,120 L20.5435543,99.3633853 L13.7338428,99.3633853 C8.38122385,99.3633853 4,94.9526969 4,89.5640807 L4,45.7993047 C4,40.4106884 8.38122385,36 13.7338428,36" id="Fill-153" fill="#00AEBF"></path>
            <g id="Group-203" transform="translate(0.000000, 5.000000)">
                <path d="M13.8868213,35.9615104 C10.5278426,35.9615104 7.79618298,38.6868708 7.79618298,42.0381036 L7.79618298,85.460081 C7.79618298,88.8096581 10.5278426,91.5366742 13.8868213,91.5366742 L20.7043532,91.5366742 C22.7223957,91.5366742 24.3587362,93.1675855 24.3587362,95.1826301 L24.3587362,106.857306 L38.6443532,92.6029756 C39.3297574,91.9191519 40.2591191,91.5366742 41.2283106,91.5366742 L76.4909489,91.5366742 C79.8499277,91.5366742 82.5815872,88.8096581 82.5815872,85.460081 L82.5815872,42.0381036 C82.5815872,38.6868708 79.8499277,35.9615104 76.4909489,35.9615104 L13.8868213,35.9615104 Z M19.3069915,119.025394 C17.9395021,118.46244 17.0499702,117.132874 17.0499702,115.657603 L17.0499702,98.8269303 L13.8868213,98.8269303 C6.49839574,98.8269303 0.487417021,92.829813 0.487417021,85.460081 L0.487417021,42.0381036 C0.487417021,34.6667159 6.49839574,28.6695986 13.8868213,28.6695986 L76.4909489,28.6695986 C83.8793745,28.6695986 89.8903532,34.6667159 89.8903532,42.0381036 L89.8903532,85.460081 C89.8903532,92.829813 83.8793745,98.8269303 76.4909489,98.8269303 L42.7418426,98.8269303 L23.2883106,118.235602 C22.5896298,118.934328 21.6552894,119.303559 20.7026936,119.303559 C20.233034,119.303559 19.7583957,119.212493 19.3069915,119.025394 L19.3069915,119.025394 Z" id="Fill-199" fill="#FFFFFE"></path>
                <path d="M143.374123,0.199683145 L67.7307191,0.199683145 C61.2550596,0.199683145 55.9560383,5.48482906 55.9560383,11.9472114 L55.9560383,64.40957 C55.9560383,70.8719524 61.2550596,76.1570983 67.7307191,76.1570983 L110.338634,76.1570983 L135.135996,100.898933 L135.135996,76.1570983 L143.374123,76.1570983 C149.849783,76.1570983 155.148804,70.8719524 155.148804,64.40957 L155.148804,11.9472114 C155.148804,5.48482906 149.849783,0.199683145 143.374123,0.199683145" id="Fill-201" fill="#00AEBF"></path>
            </g>
            <g id="Group-272" transform="translate(10.000000, 0.000000)">
                <path d="M57.176364,9.57714627 C53.0990071,9.57714627 49.7820898,12.8723552 49.7820898,16.9230269 L49.7820898,69.4194 C49.7820898,73.4684149 53.0990071,76.7652806 57.176364,76.7652806 L99.9894448,76.7652806 C101.166792,76.7652806 102.295778,77.2275045 103.127926,78.0558627 L120.472952,95.2873701 L120.472952,81.1721463 C120.472952,78.7384299 122.457432,76.7652806 124.908849,76.7652806 L133.186967,76.7652806 C137.264324,76.7652806 140.581242,73.4684149 140.581242,69.4194 L140.581242,16.9230269 C140.581242,12.8723552 137.264324,9.57714627 133.186967,9.57714627 L57.176364,9.57714627 Z M124.910517,110.335325 C123.754849,110.335325 122.62086,109.886355 121.772036,109.044743 L98.1533835,85.5790119 L57.176364,85.5790119 C48.2061789,85.5790119 40.9086273,78.3292209 40.9086273,69.4194 L40.9086273,16.9230269 C40.9086273,8.01154925 48.2061789,0.761758209 57.176364,0.761758209 L133.186967,0.761758209 C142.157152,0.761758209 149.454704,8.01154925 149.454704,16.9230269 L149.454704,69.4194 C149.454704,78.3292209 142.157152,85.5790119 133.186967,85.5790119 L129.344746,85.5790119 L129.344746,105.926803 C129.344746,107.70943 128.264122,109.318101 126.606497,109.999012 C126.057847,110.224325 125.480846,110.335325 124.910517,110.335325 L124.910517,110.335325 Z" id="Fill-250" fill="#FFFFFE"></path>
                <path d="M111.308488,56.753803 C111.308488,60.504609 108.218368,63.5728478 104.442852,63.5728478 L78.8397195,63.5728478 C75.0642038,63.5728478 71.9757519,60.504609 71.9757519,56.753803 L71.9757519,31.5418925 C71.9757519,27.7927433 75.0642038,24.7228478 78.8397195,24.7228478 L104.442852,24.7228478 C108.218368,24.7228478 111.308488,27.7927433 111.308488,31.5418925 L111.308488,56.753803 Z" id="Stroke-252" stroke="#FFFFFE" stroke-width="2.661"></path>
                <polyline id="Stroke-254" stroke="#FFFFFE" stroke-width="2.661" stroke-linejoin="round" points="111.639846 38.8584493 125.783021 33.566897 125.783021 55.4239567 111.11621 50.2185537"></polyline>
                <g id="Group" transform="translate(0.316786, 64.560416)" fill="#FFFFFE">
                    <path d="M26.2315409,13.1515119 L25.6612113,13.6998851 C25.6612113,13.6998851 25.9030177,14.3907358 26.059775,14.3277806 C26.2148646,14.2681388 27.1887609,14.273109 27.1887609,14.273109 L27.522287,13.8539597 L27.1954314,13.3055866 L26.2315409,13.1515119 Z" id="Fill-256"></path>
                    <path d="M23.8856849,10.2716418 C23.8856849,10.2716418 22.124667,10.4091493 22.9251297,11.0403582 C22.9251297,11.0403582 23.6138612,11.0569254 23.7489392,11.3915821 L23.8940231,12.0890597 C23.8940231,12.0890597 26.0169169,12.466791 25.9435411,11.409806 C25.9435411,11.409806 24.8662517,10.188806 23.8856849,10.2716418" id="Fill-258"></path>
                    <path d="M21.1464349,7.90071493 C21.1464349,7.90071493 20.4360243,7.35731194 21.5800189,7.00940149 L23.4044067,7.0408791 C23.4044067,7.0408791 24.0647885,7.65883433 24.6501268,7.58593881 L25.3705432,7.48653582 L26.0192516,7.73835672 L26.2977459,8.12271493 C26.2977459,8.12271493 25.0770403,8.8665806 24.7635257,8.88149104 C24.7635257,8.88149104 23.4127449,8.52861045 23.0758835,8.29998358 L21.1464349,7.90071493 Z" id="Fill-260"></path>
                    <path d="M34.1332751,11.7949925 L32.3906011,12.7906791 C32.3906011,12.7906791 30.0092246,14.1574701 29.7690858,13.4152612 L29.664025,12.1445597 L29.7357331,11.6707388 C29.7357331,11.6707388 29.8424615,11.0809478 29.6306724,11.0925448 L28.7618369,10.6617985 C28.7618369,10.6617985 28.5450449,11.0925448 28.3215824,11.2250821 C28.3215824,11.2250821 27.4260647,11.0908881 26.8523998,10.3536493 C26.8523998,10.3536493 26.3604488,9.3795 26.5555616,8.85763433 C26.5555616,8.85763433 27.3443508,7.39309701 28.5100246,8.96035075 L28.9336028,9.68599254 L29.203759,9.70752985 L29.5372851,9.70421642 L30.9714474,9.16412687 C30.9714474,9.16412687 31.6885286,8.89242537 31.8919795,9.00011194 L33.2194135,10.0985149 L33.5662807,10.279097 L34.4851451,10.4745896 C34.4851451,10.4745896 35.12218,11.1571567 34.0949196,11.8811418" id="Fill-262"></path>
                    <path d="M11.9564561,3.44265672 L12.4434042,3.33662687 L13.6424307,3.34491045 L13.9275955,2.80316418 C13.9275955,2.80316418 14.5279425,1.36513433 15.1766508,1.47779104 C15.1766508,1.47779104 15.9520991,2.5828209 16.2089142,2.75346269 L16.5958045,3.50064179 L17.2144954,3.61164179 L17.3996024,3.89328358 L17.4012701,4.25279104 L17.202822,4.44331343 L17.4029377,4.93535821 L17.6464118,4.89559701 C17.6464118,4.89559701 17.9832731,5.51852239 18.096672,5.58810448 C18.2100709,5.65602985 18.4418716,5.76537313 18.6153051,5.83992537 C18.7870711,5.91447761 18.7370422,6.17623881 18.7370422,6.17623881 L18.3218022,6.49929851 C18.3218022,6.49929851 17.266192,6.20440299 16.864293,6.70638806 L16.4323767,6.87868657 C16.4323767,6.87868657 16.3189778,6.42474627 16.1488795,6.32037313 L15.5085093,6.08843284 L15.4718214,5.81673134 L14.3461708,6.0238209 L13.5306994,6.10334328 C13.5306994,6.10334328 13.1888351,6.25410448 12.9570345,6.14641791 C12.9570345,6.14641791 12.9086732,5.3081194 12.6785402,5.19877612 L12.3149967,4.87240299 C12.3149967,4.87240299 12.3566874,4.37041791 12.1865891,4.26604478 L11.916433,3.91647761 L11.6296005,3.41614925 L11.9564561,3.44265672 Z" id="Fill-264"></path>
                    <path d="M0.384100213,3.441 C0.384100213,3.441 -0.154544476,2.94398507 0.0439035671,2.68553731 L0.200660845,2.32271642 L0.340741817,1.85552239 C0.340741817,1.85552239 0.709288182,1.38501493 1.17288949,1.27235821 L1.62648502,0.680910448 L2.15178866,0.752149254 L1.99669902,1.69150746 L1.23125656,2.98374627 L0.799340236,3.62489552 L0.384100213,3.441 Z" id="Fill-266"></path>
                    <path d="M5.21105703,2.61264179 L4.55734583,2.31608955 C4.55734583,2.31608955 4.05205375,1.93007463 4.06706243,1.74286567 L4.18212894,1.19780597 C4.18212894,1.19780597 4.66240656,0.651089552 5.72301963,0.236910448 L5.96982896,1.17716782e-14 L6.6418841,0.0563283582 L7.32394502,0.19880597 L7.75752898,0.217029851 C7.75752898,0.217029851 8.1294106,0.765402985 8.12274008,1.04041791 C8.12274008,1.04041791 7.84758103,1.63849254 7.78754633,1.72132836 L7.85925444,2.12391045 L7.12382934,3.01356716 C7.12382934,3.01356716 5.70467569,2.94895522 5.59127681,2.86943284 L5.21105703,2.61264179 Z" id="Fill-268"></path>
                    <path d="M37.0858151,14.8317537 L36.9790867,14.5285746 C36.9790867,14.5285746 35.3598174,13.5958433 35.4398637,14.8682015 C35.4398637,14.8682015 35.6666614,16.0875448 36.4304362,16.7336642 L36.1386009,17.0467836 L35.795069,17.2588433 L35.5515949,17.570306 L35.2614272,17.9844851 L35.2180688,18.2909776 L34.824508,18.504694 L34.5827015,18.8161567 L34.1908083,19.1325896 L34.2975367,19.4341119 L34.3058748,19.8433209 L34.4626321,20.0934851 L34.6677507,20.345306 C34.6677507,20.345306 35.7483753,21.7468881 35.6266383,22.9231567 L35.9451557,23.7846493 C35.9451557,23.7846493 35.4898926,25.6799328 35.9584968,26.4867537 L36.2153119,26.8396343 L36.7706329,27.0798582 L37.2242284,27.273694 C37.5277372,27.4194851 37.6761563,27.4161716 37.6761563,27.4161716 L37.9363067,27.8701119 C37.9363067,27.8701119 38.4882924,27.9595746 39.1470065,26.2614403 L39.5388997,25.9450075 L39.7840414,25.684903 L40.1592583,25.4214851 C40.1525878,25.1663507 40.4210763,25.1613806 40.4210763,25.1613806 L40.8163048,25.0487239 L41.0631141,24.8913358 C41.3065882,24.6312313 41.5050362,24.574903 41.5050362,24.574903 L41.5984235,24.3181119 L42.0920422,24.1027388 L42.3888804,23.943694 L42.5889961,23.9900821 L42.9892275,23.9801418 L43.7780167,23.6040672 L44.074855,23.4963806 L44.7168928,23.1766343 L45.108786,22.8088433 C45.3489248,22.4460224 45.5974017,22.3399925 45.5974017,22.3399925 L45.9892949,22.0235597 C46.232769,21.8131567 46.386191,21.9125597 46.3278239,21.6077239 L46.2711245,21.3045448 L46.0176447,21.157097 L45.664107,20.9616045 C45.3089016,20.713097 45.1054507,20.514291 45.1054507,20.514291 L44.6518552,20.3718134 L44.5451268,20.0686343 L44.4400661,19.8151567 L44.2299446,19.4125746 L43.9781324,19.2651269 L43.6779589,19.2203955 L43.5728982,19.0696343 C43.3694472,18.8708284 43.7313231,17.2820373 41.6701316,16.6143806 L41.2648974,16.4188881 L40.914695,16.3261119 C40.914695,16.3261119 40.7629406,16.226709 40.5094607,16.1306194 C40.2576485,16.0345299 39.9374634,15.8887388 39.9374634,15.8887388 L39.5522408,15.7446045 C39.1987031,15.5491119 39.0469487,15.449709 39.0469487,15.449709 L38.7451075,15.3552761 C38.7451075,15.3552761 39.0903071,15.1945746 38.7451075,15.3552761 L38.399908,15.5159776 C38.399908,15.5159776 38.6500526,15.560709 38.399908,15.5159776 L38.1480958,15.4695896 C38.1480958,15.4695896 38.5033011,15.6667388 38.1480958,15.4695896 C37.7945581,15.2757537 37.6928326,15.174694 37.6928326,15.174694 L37.4393528,15.0272463 L37.0858151,14.8317537 Z" id="Fill-270"></path>
                </g>
            </g>
        </g>
    </g>
</svg>
