<?xml version="1.0" encoding="UTF-8"?>
<svg width="24px" height="24px" viewBox="0 0 24 24" version="1.1" xmlns="http://www.w3.org/2000/svg" xmlns:xlink="http://www.w3.org/1999/xlink">
    <title>Symbols</title>
    <defs>
        <path d="M22.3670886,9.2 C21.8607595,8.6 21.1518987,8.1 20.3417722,8 C20.1392405,8 20.0379747,8 19.835443,8 L15.1772152,8 L15.1772152,5 C15.1772152,2.8 13.3544304,1 11.1265823,1 C10.721519,1 10.3164557,1.2 10.2151899,1.6 L6.46835443,10 L4.03797468,10 C2.3164557,10 1,11.3 1,13 L1,20 C1,21.7 2.3164557,23 4.03797468,23 L18.5189873,23 C18.5189873,23 18.5189873,23 18.5189873,23 C20.0379747,23 21.2531646,21.9 21.556962,20.5 L22.9746835,11.5 C23.0759494,10.7 22.8734177,9.9 22.3670886,9.2 Z M6.06329114,21 L4.03797468,21 C3.43037975,21 3.02531646,20.6 3.02531646,20 L3.02531646,13 C3.02531646,12.4 3.43037975,12 4.03797468,12 L6.06329114,12 L6.06329114,21 Z M19.5316456,20.2 C19.4303797,20.7 19.0253165,21 18.5189873,21 L8.08860759,21 L8.08860759,11.2 L11.7341772,3.1 C12.5443038,3.4 13.1518987,4.1 13.1518987,5 L13.1518987,9 C13.1518987,9.6 13.556962,10 14.164557,10 L19.9367089,10 C20.0379747,10 20.0379747,10 20.1392405,10 C20.443038,10 20.6455696,10.2 20.8481013,10.4 C21.0506329,10.6 21.0506329,10.9 21.0506329,11.1 L19.5316456,20.2 Z" id="path-1"></path>
    </defs>
    <g id="Symbols" stroke="none" stroke-width="1" fill="none" fill-rule="evenodd">
        <g id="icon-/-thumbs-up">
            <mask id="mask-2" fill="white">
                <use xlink:href="#path-1"></use>
            </mask>
            <use id="Mask" fill="#000000" fill-rule="nonzero" xlink:href="#path-1"></use>
            <g id="Icon-Color" mask="url(#mask-2)">
                <rect id="Shape" x="0" y="0" width="24" height="24"></rect>
            </g>
        </g>
    </g>
</svg>
