<?xml version="1.0" encoding="UTF-8"?>
<svg width="63px" height="40px" viewBox="0 0 63 40" version="1.1" xmlns="http://www.w3.org/2000/svg" xmlns:xlink="http://www.w3.org/1999/xlink">
    <title>Fill 399</title>
    <g id="Kuka-Scoreboard" stroke="none" stroke-width="1" fill="none" fill-rule="evenodd">
        <g id="Landing-page-Copy-2" transform="translate(-28.000000, -17.000000)" fill="#5D1B45">
            <g id="Group" transform="translate(28.000000, 17.000000)">
                <path d="M44.9400548,3.71000195 L40.0822341,3.71000195 L36.5925911,12.4190303 L36.5925911,3.71000195 L31.7347704,3.71000195 L31.7347704,40 L36.5925911,40 L36.5925911,25.892127 L37.2112728,24.1688843 L40.2143122,40 L45.0285282,40 L40.3027856,15.9576816 L44.9400548,3.71000195 Z M24.9103129,35.3735315 L21.2879598,35.3735315 L21.2879598,3.71000195 L13.9408773,3.72752645 L13.9408773,8.40202505 L16.4295072,8.40202505 L16.4295072,37.8678523 C16.4295072,37.8678523 17.0778907,40 18.5054719,40 L27.9133523,40 C29.5640128,40 29.7238968,38.0956708 29.7238968,38.0956708 L29.7238968,3.71000195 L24.9103129,3.71000195 L24.9103129,35.3735315 Z M52.0735372,30.2927241 L53.0454805,17.2733173 L54.0167919,30.2927241 L52.0735372,30.2927241 Z M63,35.5325501 L59.1867972,35.5325501 L55.739495,3.71000195 L50.3072293,3.71000195 L46.3758514,40 L51.234936,40 L51.4997241,35.2826637 L54.5470002,35.2826637 L54.8566571,40 L59.670873,40 L59.6658174,39.9571623 L63,39.9571623 L63,35.5325501 Z M47.6542918,2.89284092 L57.639145,2.89284092 L57.639145,0 L47.6542918,0 L47.6542918,2.89284092 Z M17.4317842,2.89284092 L27.4166374,2.89284092 L27.4166374,0 L17.4317842,0 L17.4317842,2.89284092 Z M13.2052843,3.71000195 L8.34746366,3.71000195 L4.85782067,12.4190303 L4.85782067,3.71000195 L0,3.71000195 L0,40 L4.85782067,40 L4.85782067,25.892127 L5.47650239,24.1688843 L8.48017374,40 L13.2937577,40 L8.56801517,15.9576816 L13.2052843,3.71000195 Z" id="Fill-399"></path>
            </g>
        </g>
    </g>
</svg>